<svg width="139" height="82" viewBox="0 0 139 82" fill="none" xmlns="http://www.w3.org/2000/svg">
<rect width="139" height="82" rx="4" fill="#191919"/>
<g opacity="0.3">
<path d="M86.0275 40.183L86.8913 41.0986V39.8399V28.6087V28.1087H86.3913H51.6087H51.1087V28.6087V46.3554V47.6141L51.9725 46.6984L58.3096 39.9803C58.3097 39.9802 58.3097 39.9802 58.3097 39.9802C58.6285 39.6425 59.1674 39.6488 59.4799 39.9802L65.5702 46.4369L65.9339 46.8225L66.2977 46.4369L78.5269 33.4724C78.8455 33.1347 79.3834 33.1397 79.6971 33.4724L79.6972 33.4724L86.0275 40.183ZM50.3044 26.5H87.6955C88.1398 26.5 88.5 26.8602 88.5 27.3044V27.3102V27.3165V27.3235V27.331V27.3391V27.3477V27.357V27.3668V27.3772V27.3881V27.3996V27.4117V27.4243V27.4374V27.4512V27.4654V27.4802V27.4956V27.5115V27.5279V27.5449V27.5624V27.5805V27.5991V27.6182V27.6378V27.658V27.6787V27.6999V27.7216V27.7438V27.7666V27.7898V27.8136V27.8379V27.8626V27.8879V27.9137V27.94V27.9667V27.994V28.0217V28.05V28.0787V28.1079V28.1376V28.1677V28.1984V28.2295V28.2611V28.2931V28.3256V28.3586V28.3921V28.426V28.4603V28.4951V28.5304V28.5661V28.6023V28.6389V28.676V28.7135V28.7514V28.7898V28.8286V28.8678V28.9075V28.9476V28.9881V29.0291V29.0704V29.1122V29.1544V29.197V29.2401V29.2835V29.3273V29.3716V29.4162V29.4613V29.5067V29.5526V29.5988V29.6454V29.6924V29.7398V29.7876V29.8358V29.8843V29.9332V29.9825V30.0322V30.0822V30.1326V30.1834V30.2345V30.286V30.3378V30.3901V30.4426V30.4955V30.5488V30.6024V30.6563V30.7106V30.7653V30.8202V30.8755V30.9312V30.9871V31.0434V31.1001V31.157V31.2143V31.2719V31.3298V31.388V31.4465V31.5054V31.5645V31.624V31.6837V31.7438V31.8041V31.8648V31.9257V31.987V32.0485V32.1103V32.1724V32.2348V32.2974V32.3604V32.4236V32.4871V32.5508V32.6149V32.6792V32.7437V32.8085V32.8736V32.9389V33.0045V33.0704V33.1364V33.2028V33.2694V33.3362V33.4033V33.4706V33.5381V33.6059V33.6739V33.7421V33.8106V33.8793V33.9482V34.0173V34.0867V34.1562V34.226V34.296V34.3662V34.4366V34.5072V34.578V34.649V34.7202V34.7916V34.8632V34.935V35.0069V35.0791V35.1514V35.224V35.2967V35.3695V35.4426V35.5158V35.5892V35.6627V35.7365V35.8103V35.8844V35.9586V36.0329V36.1074V36.1821V36.2569V36.3319V36.407V36.4822V36.5576V36.6331V36.7087V36.7845V36.8604V36.9365V37.0127V37.0889V37.1654V37.2419V37.3185V37.3953V37.4722V37.5491V37.6262V37.7034V37.7807V37.8581V37.9356V38.0132V38.0909V38.1687V38.2465V38.3245V38.4025V38.4806V38.5588V38.6371V38.7154V38.7938V38.8723V38.9509V39.0295V39.1082V39.187V39.2658V39.3446V39.4235V39.5025V39.5815V39.6606V39.7397V39.8188V39.898V39.9773V40.0565V40.1358V40.2152V40.2945V40.3739V40.4533V40.5328V40.6122V40.6917V40.7712V40.8507V40.9302V41.0097V41.0892V41.1687V41.2483V41.3278V41.4073V41.4868V41.5663V41.6458V41.7253V41.8048V41.8842V41.9636V42.0431V42.1224V42.2018V42.2811V42.3604V42.4397V42.5189V42.5981V42.6773V42.7564V42.8354V42.9145V42.9934V43.0723V43.1512V43.23V43.3087V43.3874V43.4661V43.5446V43.6231V43.7015V43.7799V43.8581V43.9363V44.0144V44.0925V44.1704V44.2483V44.326V44.4037V44.4813V44.5588V44.6362V44.7135V44.7907V44.8678V44.9447V45.0216V45.0984V45.175V45.2515V45.3279V45.4042V45.4804V45.5564V45.6323V45.7081V45.7838V45.8593V45.9347V46.0099V46.085V46.1599V46.2347V46.3094V46.3839V46.4582V46.5324V46.6065V46.6804V46.7541V46.8276V46.901V46.9742V47.0473V47.1201V47.1928V47.2653V47.3377V47.4098V47.4818V47.5535V47.6251V47.6965V47.7677V47.8387V47.9095V47.9801V48.0505V48.1207V48.1907V48.2605V48.33V48.3994V48.4685V48.5374V48.6061V48.6745V48.7427V48.8107V48.8785V48.9461V49.0133V49.0804V49.1472V49.2138V49.2801V49.3462V49.412V49.4776V49.5429V49.608V49.6728V49.7374V49.8017V49.8657V49.9294V49.9929V50.0561V50.119V50.1817V50.2441V50.3061V50.368V50.4295V50.4907V50.5516V50.6123V50.6726V50.7327V50.7924V50.8519V50.911V50.9698V51.0284V51.0866V51.1445V51.202V51.2593V51.3162V51.3729V51.4291V51.4851V51.5407V51.596V51.651V51.7056V51.7599V51.8138V51.8674V51.9207V51.9736V52.0261V52.0783V52.1301V52.1816V52.2327V52.2835V52.3339V52.3839V52.4336V52.4829V52.5318V52.5803V52.6284V52.6762V52.7236V52.7706V52.8172V52.8634V52.9093V52.9547V52.9997V53.0444V53.0886V53.1324V53.1758V53.2189V53.2615V53.3036V53.3454V53.3868V53.4277V53.4682V53.5083V53.548V53.5872V53.626V53.6643V53.7023V53.7397V53.7768V53.8134V53.8495V53.8852V53.9205V53.9553V53.9897V54.0235V54.057V54.0899V54.1224V54.1545V54.1861V54.2171V54.2478V54.2779V54.3076V54.3368V54.3655V54.3937V54.4214V54.4487V54.4754V54.5017V54.5274V54.5527V54.5775V54.6017V54.6255V54.6487V54.6715V54.6937V54.7154V54.7366V54.7572V54.7774V54.797V54.8161V54.8347V54.8527V54.8702V54.8872V54.9036V54.9195V54.9348V54.9496V54.9639V54.9776V54.9907V55.0033V55.0154V55.0268V55.0378V55.0481V55.0579V55.0671V55.0758V55.0839V55.0914V55.0983V55.1046V55.1104V55.1156V55.1202V55.1242V55.1276V55.1304C88.5 55.5746 88.1398 55.9348 87.6956 55.9348H50.3044C49.8601 55.9348 49.5 55.5746 49.5 55.1304V55.1282V55.1253V55.1219V55.1178V55.1132V55.1079V55.102V55.0956V55.0885V55.0809V55.0726V55.0638V55.0544V55.0444V55.0338V55.0226V55.0109V54.9985V54.9857V54.9722V54.9582V54.9436V54.9284V54.9127V54.8964V54.8796V54.8622V54.8443V54.8258V54.8068V54.7873V54.7671V54.7465V54.7253V54.7036V54.6814V54.6586V54.6353V54.6115V54.5871V54.5623V54.5369V54.511V54.4846V54.4577V54.4302V54.4023V54.3739V54.345V54.3155V54.2856V54.2552V54.2243V54.1929V54.161V54.1287V54.0958V54.0625V54.0287V53.9944V53.9597V53.9245V53.8888V53.8527V53.8161V53.779V53.7415V53.7035V53.6651V53.6263V53.5869V53.5472V53.507V53.4663V53.4253V53.3837V53.3418V53.2994V53.2566V53.2134V53.1697V53.1257V53.0812V53.0363V52.9909V52.9452V52.8991V52.8525V52.8056V52.7582V52.7105V52.6623V52.6138V52.5649V52.5155V52.4658V52.4157V52.3653V52.3144V52.2632V52.2116V52.1596V52.1073V52.0545V52.0015V51.948V51.8942V51.8401V51.7855V51.7307V51.6755V51.6199V51.564V51.5077V51.4511V51.3942V51.3369V51.2793V51.2214V51.1631V51.1045V51.0456V50.9863V50.9268V50.8669V50.8067V50.7462V50.6854V50.6243V50.5629V50.5011V50.4391V50.3768V50.3141V50.2512V50.188V50.1245V50.0608V49.9967V49.9323V49.8677V49.8028V49.7377V49.6722V49.6065V49.5405V49.4743V49.4078V49.341V49.274V49.2067V49.1392V49.0714V49.0034V48.9351V48.8666V48.7979V48.7289V48.6596V48.5902V48.5205V48.4506V48.3804V48.3101V48.2395V48.1687V48.0977V48.0264V47.955V47.8833V47.8115V47.7394V47.6671V47.5947V47.522V47.4492V47.3761V47.3029V47.2294V47.1558V47.082V47.0081V46.9339V46.8596V46.7851V46.7104V46.6356V46.5606V46.4854V46.4101V46.3346V46.259V46.1832V46.1072V46.0311V45.9549V45.8785V45.802V45.7253V45.6485V45.5716V45.4945V45.4173V45.34V45.2626V45.185V45.1073V45.0295V44.9516V44.8736V44.7954V44.7172V44.6388V44.5603V44.4818V44.4031V44.3244V44.2455V44.1666V44.0875V44.0084V43.9292V43.85V43.7706V43.6912V43.6116V43.5321V43.4524V43.3727V43.2929V43.2131V43.1332V43.0532V42.9732V42.8931V42.813V42.7328V42.6526V42.5724V42.4921V42.4118V42.3314V42.251V42.1705V42.0901V42.0096V41.9291V41.8486V41.768V41.6874V41.6069V41.5263V41.4457V41.3651V41.2844V41.2038V41.1232V41.0426V40.962V40.8814V40.8008V40.7202V40.6397V40.5591V40.4786V40.3981V40.3176V40.2372V40.1567V40.0764V39.996V39.9157V39.8354V39.7552V39.675V39.5948V39.5147V39.4347V39.3547V39.2747V39.1948V39.115V39.0353V38.9556V38.8759V38.7964V38.7169V38.6375V38.5582V38.4789V38.3997V38.3207V38.2417V38.1627V38.0839V38.0052V37.9266V37.8481V37.7696V37.6913V37.6131V37.535V37.457V37.3791V37.3013V37.2237V37.1462V37.0688V36.9915V36.9143V36.8373V36.7604V36.6837V36.6071V36.5306V36.4542V36.3781V36.302V36.2261V36.1504V36.0748V35.9994V35.9241V35.849V35.774V35.6993V35.6247V35.5502V35.476V35.4019V35.328V35.2542V35.1807V35.1073V35.0341V34.9612V34.8884V34.8158V34.7434V34.6712V34.5992V34.5274V34.4558V34.3844V34.3133V34.2423V34.1716V34.1011V34.0308V33.9607V33.8909V33.8213V33.7519V33.6828V33.6139V33.5452V33.4768V33.4086V33.3406V33.273V33.2055V33.1383V33.0714V33.0047V32.9383V32.8721V32.8063V32.7406V32.6753V32.6102V32.5454V32.4809V32.4166V32.3527V32.289V32.2256V32.1625V32.0997V32.0372V31.9749V31.913V31.8514V31.7901V31.729V31.6683V31.6079V31.5479V31.4881V31.4286V31.3695V31.3107V31.2522V31.1941V31.1362V31.0787V31.0216V30.9648V30.9083V30.8521V30.7964V30.7409V30.6858V30.6311V30.5767V30.5226V30.4689V30.4156V30.3627V30.3101V30.2579V30.206V30.1545V30.1034V30.0527V30.0024V29.9524V29.9028V29.8537V29.8049V29.7565V29.7085V29.6608V29.6136V29.5668V29.5204V29.4744V29.4288V29.3836V29.3389V29.2945V29.2506V29.2071V29.164V29.1214V29.0791V29.0373V28.996V28.955V28.9145V28.8745V28.8349V28.7957V28.757V28.7187V28.6809V28.6436V28.6067V28.5702V28.5343V28.4987V28.4637V28.4291V28.395V28.3614V28.3282V28.2956V28.2634V28.2316V28.2004V28.1697V28.1394V28.1097V28.0804V28.0517V28.0234V27.9957V27.9684V27.9417V27.9155V27.8897V27.8645V27.8398V27.8157V27.792V27.7689V27.7463V27.7243V27.7027V27.6817V27.6613V27.6414V27.622V27.6032V27.5849V27.5671V27.5499V27.5333V27.5172V27.5017V27.4867V27.4723V27.4585V27.4453V27.4326V27.4204V27.4089V27.3979V27.3875V27.3777V27.3685V27.3599V27.3518V27.3444V27.3375V27.3313V27.3256V27.3206V27.3161V27.3123V27.309V27.3064V27.3044C49.5 26.8602 49.8601 26.5 50.3044 26.5Z" fill="#999999" stroke="#191919"/>
<path d="M64.5498 36.2698C64.5498 35.1373 65.472 34.2151 66.6046 34.2151C67.737 34.2151 68.6593 35.1373 68.6593 36.2698C68.6593 37.4023 67.7371 38.3245 66.6046 38.3245C65.472 38.3245 64.5498 37.4023 64.5498 36.2698Z" fill="#999999" stroke="#191919"/>
</g>
</svg>
